<?xml version="1.0" standalone="no"?><!DOCTYPE svg PUBLIC "-//W3C//DTD SVG 1.1//EN" "http://www.w3.org/Graphics/SVG/1.1/DTD/svg11.dtd"><svg t="1522826438616" class="icon" style="" viewBox="0 0 1024 1024" version="1.1" xmlns="http://www.w3.org/2000/svg" p-id="2590" xmlns:xlink="http://www.w3.org/1999/xlink" width="300" height="300"><defs><style type="text/css"></style></defs><path d="M608 352h224v64H608zM608 480h224v64H608zM608 608h224v64H608z" p-id="2591"></path><path d="M896 192H128a64.19 64.19 0 0 0-64 64v512a64.19 64.19 0 0 0 64 64h768a64.19 64.19 0 0 0 64-64V256a64.19 64.19 0 0 0-64-64zM476 672.53L448.53 700a13.61 13.61 0 0 1-19.25 0L270.81 541.52a99.62 99.62 0 0 1-132.65-132.65l66.32 66.32 46.71-46.71-66.32-66.33a99.62 99.62 0 0 1 132.65 132.66L476 653.29a13.61 13.61 0 0 1 0 19.24zM896 768H544V256h352z" p-id="2592"></path></svg>