<?xml version="1.0" standalone="no"?><!DOCTYPE svg PUBLIC "-//W3C//DTD SVG 1.1//EN" "http://www.w3.org/Graphics/SVG/1.1/DTD/svg11.dtd"><svg t="1522996658478" class="icon" style="" viewBox="0 0 1024 1024" version="1.1" xmlns="http://www.w3.org/2000/svg" p-id="1900" xmlns:xlink="http://www.w3.org/1999/xlink" width="300" height="300"><defs><style type="text/css"></style></defs><path d="M1008.099379 375.254658 594.683229 82.68323c-63.602484-44.521739-101.763975-44.521739-165.36646 0L15.900621 375.254658C3.180124 381.614907-3.180125 394.335404 9.540372 407.055901c6.360248 6.360248 12.720497 12.720497 19.080745 12.720497 6.360248 0 12.720497 0 12.720497-6.360248l38.161491-25.440994 0 610.583851c0 12.720497 12.720497 25.440994 25.440994 25.440994S130.385093 1004.919255 130.385093 992.198758L130.385093 349.813665l330.732919-228.968944c44.521739-31.801242 63.602484-31.801242 108.124224 0L893.614906 349.813665l0 642.385093c0 12.720497 12.720497 25.440994 25.440994 25.440994 12.720497 0 25.440994-12.720497 25.440994-25.440994L944.496894 387.975155l38.161491 25.440994c12.720497 6.360248 25.440994 6.360248 31.801242-6.360248C1027.180124 394.335404 1020.819875 381.614907 1008.099379 375.254658z" p-id="1901"></path><path d="M213.068323 451.57764l139.925466 0 0 152.645963-139.925466 0 0-152.645963Z" p-id="1902"></path><path d="M213.068323 648.745342l139.925466 0 0 152.645963-139.925466 0 0-152.645963Z" p-id="1903"></path><path d="M213.068323 845.913043l139.925466 0 0 152.645963-139.925466 0 0-152.645963Z" p-id="1904"></path><path d="M442.037267 648.745342l139.925466 0 0 152.645963-139.925466 0 0-152.645963Z" p-id="1905"></path><path d="M442.037267 845.913043l139.925466 0 0 152.645963-139.925466 0 0-152.645963Z" p-id="1906"></path><path d="M677.366459 845.913043l139.925466 0 0 152.645963-139.925466 0 0-152.645963Z" p-id="1907"></path></svg>